<?xml version="1.0" encoding="UTF-8" standalone="no"?><!DOCTYPE svg PUBLIC "-//W3C//DTD SVG 1.1//EN" "http://www.w3.org/Graphics/SVG/1.1/DTD/svg11.dtd"><svg width="100%" height="100%" viewBox="0 0 5000 1205" version="1.1" xmlns="http://www.w3.org/2000/svg" xmlns:xlink="http://www.w3.org/1999/xlink" xml:space="preserve" xmlns:serif="http://www.serif.com/" style="fill-rule:evenodd;clip-rule:evenodd;stroke-linecap:round;stroke-linejoin:round;stroke-miterlimit:1.5;"><rect id="Logo-completo" x="0" y="0" width="5000" height="1200.16" style="fill:none;"/><g id="Logo-completo1" serif:id="Logo-completo"><g><g transform="matrix(3.08447,0,0,3.08447,-384.615,-3991.95)"><g transform="matrix(190.106,0,0,190.106,377.793,1530.29)"><path d="M0.062,-0l0.171,-0l0,-0.422l0.158,0.422l0.138,-0l0.157,-0.421l0,0.421l0.171,-0l-0,-0.702l-0.201,0l-0.195,0.486l-0.197,-0.486l-0.202,0l-0,0.702Z" style="fill:#121a2b;fill-rule:nonzero;"/></g><g transform="matrix(190.106,0,0,190.106,547.368,1530.29)"><path d="M0.028,-0.28c0,0.176 0.109,0.288 0.245,0.288c0.083,-0 0.142,-0.038 0.173,-0.087l-0,0.079l0.171,-0l-0,-0.558l-0.171,0l-0,0.079c-0.03,-0.049 -0.089,-0.087 -0.172,-0.087c-0.137,0 -0.246,0.11 -0.246,0.286Zm0.418,0.001c0,0.089 -0.057,0.138 -0.122,0.138c-0.064,0 -0.122,-0.05 -0.122,-0.139c0,-0.089 0.058,-0.137 0.122,-0.137c0.065,0 0.122,0.049 0.122,0.138Z" style="fill:#121a2b;fill-rule:nonzero;"/></g><g transform="matrix(190.106,0,0,190.106,671.508,1530.29)"><path d="M0.447,-0l0.17,-0l0,-0.326c0,-0.15 -0.086,-0.238 -0.215,-0.238c-0.075,0 -0.135,0.033 -0.169,0.08l0,-0.074l-0.171,0l0,0.558l0.171,-0l0,-0.303c0,-0.076 0.042,-0.118 0.107,-0.118c0.065,0 0.107,0.042 0.107,0.118l0,0.303Z" style="fill:#121a2b;fill-rule:nonzero;"/></g><g transform="matrix(190.106,0,0,190.106,794.696,1530.29)"><path d="M0.028,-0.28c0,0.176 0.109,0.288 0.245,0.288c0.083,-0 0.142,-0.038 0.173,-0.087l-0,0.079l0.171,-0l-0,-0.558l-0.171,0l-0,0.079c-0.03,-0.049 -0.089,-0.087 -0.172,-0.087c-0.137,0 -0.246,0.11 -0.246,0.286Zm0.418,0.001c0,0.089 -0.057,0.138 -0.122,0.138c-0.064,0 -0.122,-0.05 -0.122,-0.139c0,-0.089 0.058,-0.137 0.122,-0.137c0.065,0 0.122,0.049 0.122,0.138Z" style="fill:#121a2b;fill-rule:nonzero;"/></g><g transform="matrix(190.106,0,0,190.106,918.836,1530.29)"><path d="M0.028,-0.28c0,0.176 0.109,0.288 0.246,0.288c0.082,-0 0.141,-0.039 0.172,-0.088l-0,0.079c-0,0.094 -0.051,0.128 -0.116,0.128c-0.059,0 -0.101,-0.027 -0.112,-0.069l-0.169,0c0.015,0.133 0.123,0.217 0.289,0.217c0.193,0 0.279,-0.127 0.279,-0.276l-0,-0.557l-0.171,0l-0,0.079c-0.03,-0.05 -0.09,-0.087 -0.172,-0.087c-0.137,0 -0.246,0.11 -0.246,0.286Zm0.418,0.001c0,0.089 -0.057,0.138 -0.122,0.138c-0.064,0 -0.122,-0.05 -0.122,-0.139c0,-0.089 0.058,-0.137 0.122,-0.137c0.065,0 0.122,0.049 0.122,0.138Z" style="fill:#121a2b;fill-rule:nonzero;"/></g><g transform="matrix(190.106,0,0,190.106,1042.98,1530.29)"><path d="M0.308,-0.429c0.057,0 0.105,0.035 0.105,0.096l-0.214,-0c0.01,-0.062 0.053,-0.096 0.109,-0.096Zm0.267,0.244l-0.182,-0c-0.014,0.03 -0.041,0.054 -0.089,0.054c-0.055,-0 -0.1,-0.034 -0.106,-0.107l0.387,-0c0.002,-0.017 0.003,-0.034 0.003,-0.05c0,-0.17 -0.115,-0.278 -0.278,-0.278c-0.166,-0 -0.282,0.11 -0.282,0.287c0,0.177 0.118,0.287 0.282,0.287c0.139,-0 0.238,-0.084 0.265,-0.193Z" style="fill:#121a2b;fill-rule:nonzero;"/></g><g transform="matrix(190.106,0,0,190.106,1155.14,1530.29)"><path d="M0.233,-0.259c0,-0.096 0.047,-0.124 0.128,-0.124l0.047,0l0,-0.181c-0.075,0 -0.136,0.04 -0.175,0.099l0,-0.093l-0.171,0l0,0.558l0.171,-0l0,-0.259Z" style="fill:#121a2b;fill-rule:nonzero;"/></g><g transform="matrix(190.106,0,0,190.106,1231.56,1530.29)"><path d="M0.572,-0.209c0,-0.235 -0.347,-0.18 -0.347,-0.302c-0,-0.044 0.031,-0.065 0.072,-0.064c0.046,0.001 0.078,0.028 0.081,0.073l0.185,0c-0.007,-0.134 -0.11,-0.21 -0.263,-0.21c-0.147,0 -0.256,0.074 -0.256,0.207c-0.002,0.249 0.349,0.179 0.349,0.309c-0,0.041 -0.032,0.066 -0.082,0.066c-0.048,-0 -0.082,-0.026 -0.087,-0.08l-0.182,-0c0.005,0.142 0.123,0.217 0.274,0.217c0.164,-0 0.256,-0.098 0.256,-0.216Z" style="fill:#2f4975;fill-rule:nonzero;"/></g><g transform="matrix(190.106,0,0,190.106,1343.53,1530.29)"><path d="M0.319,-0.209l-0.129,-0.349l-0.191,0l0.227,0.539l-0.128,0.284l0.184,0l0.35,-0.823l-0.185,0l-0.128,0.349Z" style="fill:#2f4975;fill-rule:nonzero;"/></g><g transform="matrix(190.106,0,0,190.106,1458.74,1530.29)"><path d="M0.447,-0l0.17,-0l0,-0.326c0,-0.15 -0.086,-0.238 -0.215,-0.238c-0.075,0 -0.135,0.033 -0.169,0.08l0,-0.074l-0.171,0l0,0.558l0.171,-0l0,-0.303c0,-0.076 0.042,-0.118 0.107,-0.118c0.065,0 0.107,0.042 0.107,0.118l0,0.303Z" style="fill:#2f4975;fill-rule:nonzero;"/></g><g transform="matrix(190.106,0,0,190.106,1581.93,1530.29)"><path d="M0.028,-0.279c0,0.177 0.116,0.287 0.28,0.287c0.14,-0 0.239,-0.081 0.268,-0.21l-0.182,-0c-0.015,0.041 -0.042,0.064 -0.089,0.064c-0.061,-0 -0.103,-0.048 -0.103,-0.141c-0,-0.093 0.042,-0.141 0.103,-0.141c0.047,0 0.075,0.025 0.089,0.064l0.182,0c-0.029,-0.133 -0.128,-0.21 -0.268,-0.21c-0.164,0 -0.28,0.111 -0.28,0.287Z" style="fill:#2f4975;fill-rule:nonzero;"/></g></g><g><path d="M562.12,420.93c18.152,29.069 28.646,63.403 28.646,100.17c-0,104.585 -84.91,189.494 -189.495,189.494c-36.766,0 -71.101,-10.493 -100.17,-28.646l25.673,-25.672c22.092,12.211 47.489,19.163 74.497,19.163c85.182,-0 154.339,-69.157 154.339,-154.339c0,-27.008 -6.952,-52.405 -19.163,-74.498l25.673,-25.672Z" style="fill:#2f4975;stroke:#2f4975;stroke-width:27.63px;"/><path d="M239.244,619.357c-17.428,-28.658 -27.468,-62.295 -27.468,-98.257c0,-104.585 84.91,-189.495 189.495,-189.495c35.963,-0 69.6,10.04 98.257,27.467l-25.763,25.763c-21.619,-11.535 -46.299,-18.075 -72.494,-18.075c-85.182,0 -154.339,69.157 -154.339,154.34c-0,26.195 6.54,50.874 18.075,72.494l-25.763,25.763Z" style="fill:#2f4975;stroke:#2f4975;stroke-width:27.63px;"/><g><path d="M248.015,616.703l-80.564,-34.715" style="fill:none;stroke:#2f4975;stroke-width:49.17px;stroke-linejoin:bevel;"/><path d="M249.325,615.393l37.99,-81.874" style="fill:none;stroke:#2f4975;stroke-width:49.17px;stroke-linejoin:bevel;"/></g><g><path d="M544.729,407.595l89.08,45.195" style="fill:none;stroke:#2f4975;stroke-width:49.17px;stroke-linejoin:bevel;"/><path d="M543.419,408.905l-37.99,81.875" style="fill:none;stroke:#2f4975;stroke-width:49.17px;stroke-linejoin:bevel;"/></g></g></g></g></svg>