<?xml version="1.0" encoding="UTF-8" standalone="no"?><!DOCTYPE svg PUBLIC "-//W3C//DTD SVG 1.1//EN" "http://www.w3.org/Graphics/SVG/1.1/DTD/svg11.dtd"><svg width="100%" height="100%" viewBox="0 0 1896 1571" version="1.1" xmlns="http://www.w3.org/2000/svg" xmlns:xlink="http://www.w3.org/1999/xlink" xml:space="preserve" xmlns:serif="http://www.serif.com/" style="fill-rule:evenodd;clip-rule:evenodd;stroke-linecap:round;stroke-linejoin:round;stroke-miterlimit:1.5;"><rect id="logo-reducido-blanco" serif:id="logo-reducido blanco" x="1.037" y="2.083" width="1893.28" height="1565.1" style="fill:#fff;"/><path d="M618.017,910.209l10.566,-21.111l13.324,-20.266l15.199,-18.296l8.632,-9.288l14.449,-13.042l16.982,-12.385l11.188,-6.827l11.591,-6.287l13.392,-6.296l-0,-227.463l79.967,210.265l17.603,0.185l12.173,1.356l8.793,1.107l7.41,1.322l8.485,1.783l8.24,2.091l8.384,2.454l8.304,2.775l12.534,4.958l6.1,2.814l9.307,4.584l5.253,2.932l4.49,2.582l2.881,1.763l3.384,2.487l3.731,3.575l2.975,3.689l0.007,0.007l95.484,-252.065l-0,177.174l29.465,-11.164l20.198,-5.406l18.639,-3.554l16.621,-1.97l16.045,-0.913l9.896,-0.192l4.459,0.065l-0,-340.604l-135.556,0l-131.508,322.669l-132.858,-322.669l-136.229,0l-0,527.161Z"/><path d="M1036.91,986.353c67.696,43.386 173.632,40.846 173.632,98.669c0,26.875 -20.976,43.263 -53.75,43.263c-31.464,-0 -53.751,-17.043 -57.029,-52.44l-76.73,-0l-2.896,7.317l-4.212,9.284l-4.366,8.701l-8.454,14.718l-10.413,14.69c25.913,57.521 90.042,87.533 167.377,87.533c107.502,-0 167.807,-64.239 167.807,-141.588c0,-154.041 -227.457,-117.989 -227.457,-197.96c-0,-28.841 20.32,-42.607 47.196,-41.951c30.153,0.655 51.128,18.354 53.095,47.851l121.267,-0c-4.589,-87.837 -72.105,-137.654 -172.396,-137.654c-88.205,-0 -155.538,40.645 -166.301,114.394l0.054,0.029l32.897,16.794l25.306,12.875l12.635,6.245l6.869,3.939l4.564,3.482l4.742,5.336l1.95,2.821l1.274,2.184l1.555,3.264l0.766,1.894l0.806,2.513l0.574,2.295l0.398,2.17l0.114,0.734l0.097,0.731l0.083,0.731l0.071,0.757l0.058,0.797l0.045,0.837l0.027,0.999l0.004,0.447l0.004,0.574l-0.023,0.861l-0.046,1.036l-0.061,0.896l-0.073,0.783l-0.151,1.237l-0.228,1.451l-0.292,1.485l-0.336,1.426l-0.445,1.617l-0.469,1.426l-0.605,1.644l-0.593,1.396l-0.533,1.165l-0.367,0.742l-0.374,0.708l-0.752,1.331l-0.795,1.296l-0.809,1.2l-0.812,1.126l-1.265,1.593l-1.234,1.401l-0.981,1.023l-1.16,1.115l-1.217,1.077l-1.519,1.217l-1.27,0.94l-1.318,0.895l-1.643,1.001l-1.41,0.769l-1.438,0.712l-2.532,1.086l-1.938,0.693l-1.214,0.36l-1.714,0.452l-1.687,0.363l-2.192,0.364l-1.974,0.208l-1.376,0.095l-1.512,0.046l-1.905,-0.042c-0,-0 -2.241,-0.151 -2.266,-0.16c0.03,0.032 1.266,14.691 1.266,14.691Z"/><g><g><path d="M971.359,902.921c17.261,27.642 27.239,60.29 27.239,95.251c0,99.451 -80.741,180.192 -180.191,180.192c-34.961,-0 -67.61,-9.978 -95.252,-27.24l24.412,-24.412c21.008,11.612 45.158,18.222 70.84,18.222c81,0 146.762,-65.761 146.762,-146.762c-0,-25.681 -6.611,-49.831 -18.223,-70.839l24.413,-24.412Z" style="fill:#2f4975;stroke:#2f4975;stroke-width:27.63px;"/><path d="M954.821,890.241l84.707,42.976" style="fill:none;stroke:#2f4975;stroke-width:49.17px;stroke-linejoin:bevel;"/><path d="M953.576,891.487l-36.125,77.854" style="fill:none;stroke:#2f4975;stroke-width:49.17px;stroke-linejoin:bevel;"/></g><g><path d="M664.334,1091.61c-16.572,-27.251 -26.119,-59.236 -26.119,-93.434c0,-99.45 80.741,-180.191 180.192,-180.191c34.197,0 66.182,9.547 93.433,26.119l-24.498,24.498c-20.558,-10.968 -44.026,-17.187 -68.935,-17.187c-81,-0 -146.762,65.761 -146.762,146.761c-0,24.91 6.219,48.378 17.187,68.935l-24.498,24.499Z" style="fill:#2f4975;stroke:#2f4975;stroke-width:27.63px;"/><path d="M672.675,1089.08l-76.609,-33.01" style="fill:none;stroke:#2f4975;stroke-width:49.17px;stroke-linejoin:bevel;"/><path d="M673.921,1087.84l36.125,-77.855" style="fill:none;stroke:#2f4975;stroke-width:49.17px;stroke-linejoin:bevel;"/></g></g></svg>